<svg width="21" height="21" viewBox="0 0 21 21" fill="none" xmlns="http://www.w3.org/2000/svg">
<path d="M11.4189 13.9793C11.3799 13.896 11.3408 13.7979 11.3115 13.6901C11.2822 13.5823 11.2578 13.4647 11.2334 13.3421C11.1357 13.45 11.0283 13.548 10.9014 13.6362C10.7744 13.7293 10.6377 13.8127 10.4814 13.8813C10.3301 13.9499 10.1641 14.0038 9.97852 14.0381C9.79297 14.0773 9.59277 14.1018 9.37793 14.1018C9.03125 14.1018 8.70898 14.0528 8.41602 13.9499C8.12793 13.847 7.87402 13.7048 7.66406 13.5284C7.4541 13.3519 7.28809 13.1314 7.17578 12.8814C7.05859 12.6315 7 12.3521 7 12.058C7 11.3376 7.26367 10.7788 7.80078 10.3867C8.33789 9.98973 9.13867 9.78878 10.2031 9.78878H11.1797V9.38198C11.1797 9.0536 11.0723 8.79384 10.8574 8.60759C10.6426 8.41644 10.335 8.31842 9.92969 8.31842C9.57324 8.31842 9.31445 8.39684 9.14844 8.55368C8.9873 8.70561 8.9043 8.91146 8.9043 9.16633H7.15137C7.15137 8.87716 7.21484 8.59779 7.3418 8.33802C7.47363 8.07826 7.65918 7.84791 7.90332 7.64696C8.15234 7.44601 8.4502 7.29407 8.80176 7.17644C9.1582 7.05881 9.56836 7 10.0225 7C10.4326 7 10.8184 7.04901 11.1699 7.15194C11.5264 7.25486 11.834 7.4019 12.0977 7.59794C12.3564 7.79889 12.5615 8.04885 12.708 8.35273C12.8545 8.6517 12.9277 8.99969 12.9277 9.39668V12.3325C12.9277 12.7001 12.9521 13.004 12.9961 13.2441C13.0449 13.4843 13.1084 13.6901 13.1963 13.8617V13.9695H11.4238V13.9793H11.4189ZM9.74902 12.7491C9.92481 12.7491 10.0908 12.7295 10.2373 12.6854C10.3838 12.6413 10.5254 12.5874 10.6475 12.5236C10.7695 12.455 10.877 12.3815 10.9648 12.2933C11.0527 12.2051 11.1211 12.1168 11.1699 12.0286V10.8523H10.2764C10.0029 10.8523 9.77344 10.8768 9.57813 10.9357C9.3877 10.9847 9.22656 11.0582 9.10449 11.1562C8.98242 11.2493 8.88965 11.3621 8.83105 11.4993C8.77246 11.6316 8.74316 11.7738 8.74316 11.9306C8.74316 12.1659 8.82617 12.3619 8.98731 12.5187C9.1582 12.6707 9.41211 12.7491 9.74902 12.7491Z" fill="white"/>
<path d="M10.2041 19.4775C15.2874 19.4775 19.4082 15.3412 19.4082 10.2387C19.4082 5.13632 15.2874 1 10.2041 1C5.12082 1 1 5.13632 1 10.2387C1 15.3412 5.12082 19.4775 10.2041 19.4775Z" stroke="white" stroke-width="2"/>
</svg>
