<svg width="59" height="56" viewBox="0 0 59 56" fill="none" xmlns="http://www.w3.org/2000/svg">
<path d="M54.7492 1.81519C52.2068 -0.605062 48.0971 -0.605062 45.5547 1.81519L42.0603 5.13059L53.4257 15.9499L56.9201 12.6234C59.4625 10.2032 59.4625 6.29099 56.9201 3.87074L54.7492 1.81519ZM20.0143 26.1282C19.3062 26.8023 18.7605 27.6312 18.4471 28.5484L15.0107 38.362C14.6741 39.3124 14.9411 40.3623 15.6841 41.0807C16.4271 41.799 17.53 42.0421 18.54 41.7216L28.849 38.4504C29.8009 38.141 30.6716 37.6326 31.3914 36.9585L50.8136 18.4585L39.4366 7.6282L20.0143 26.1282ZM11.1449 6.48991C4.99197 6.48991 0 11.242 0 17.0992V45.3907C0 51.2479 4.99197 56 11.1449 56H40.8645C47.0174 56 52.0094 51.2479 52.0094 45.3907V34.7814C52.0094 32.8253 50.3493 31.245 48.2944 31.245C46.2396 31.245 44.5795 32.8253 44.5795 34.7814V45.3907C44.5795 47.3468 42.9194 48.9271 40.8645 48.9271H11.1449C9.09004 48.9271 7.42991 47.3468 7.42991 45.3907V17.0992C7.42991 15.1431 9.09004 13.5628 11.1449 13.5628H22.2897C24.3446 13.5628 26.0047 11.9824 26.0047 10.0263C26.0047 8.07025 24.3446 6.48991 22.2897 6.48991H11.1449Z" fill="#FFF7F7"/>
</svg>
