<svg width="31" height="23" viewBox="0 0 31 23" fill="none" xmlns="http://www.w3.org/2000/svg">
<path d="M26.2832 1.94251C26.2746 1.92625 26.2603 1.91351 26.2429 1.90657C24.233 1.00858 22.112 0.368233 19.9329 0.00157066C19.9131 -0.00201339 19.8927 0.000572188 19.8745 0.00895968C19.8562 0.0173472 19.8412 0.0311095 19.8315 0.0482895C19.5427 0.558752 19.2805 1.08308 19.046 1.61928C16.6971 1.27206 14.3078 1.27206 11.9589 1.61928C11.7228 1.08172 11.4564 0.55726 11.1609 0.0482895C11.1508 0.0314829 11.1357 0.0180375 11.1176 0.00970447C11.0995 0.00137147 11.0793 -0.0014629 11.0595 0.00157066C8.88019 0.367463 6.75903 1.00785 4.74939 1.90662C4.73219 1.91373 4.71767 1.92585 4.70784 1.94133C0.688954 7.78571 -0.411971 13.4864 0.128105 19.1165C0.129625 19.1303 0.133978 19.1436 0.140907 19.1558C0.147835 19.1679 0.157198 19.1785 0.168437 19.1871C2.5086 20.8744 5.1261 22.1623 7.90924 22.9959C7.92884 23.0016 7.94977 23.0014 7.96921 22.9951C7.98866 22.9889 8.00568 22.9771 8.018 22.9612C8.61576 22.1692 9.14542 21.3305 9.60159 20.4537C9.60786 20.4416 9.61144 20.4284 9.61209 20.415C9.61275 20.4015 9.61046 20.388 9.60538 20.3755C9.60031 20.3629 9.59256 20.3516 9.58264 20.3421C9.57273 20.3327 9.56088 20.3254 9.54787 20.3208C8.71264 20.0096 7.90403 19.6344 7.12965 19.1989C7.11558 19.1908 7.10377 19.1795 7.09525 19.166C7.08673 19.1524 7.08177 19.137 7.08081 19.1212C7.07984 19.1053 7.0829 19.0895 7.08972 19.075C7.09654 19.0606 7.1069 19.048 7.1199 19.0384C7.28238 18.9198 7.44497 18.7965 7.60013 18.672C7.61392 18.6609 7.6306 18.6538 7.6483 18.6515C7.66599 18.6492 7.68401 18.6517 7.7003 18.6588C12.7736 20.9135 18.2662 20.9135 23.2794 18.6588C23.2958 18.6513 23.314 18.6484 23.3319 18.6505C23.3499 18.6526 23.3669 18.6597 23.3809 18.6708C23.5361 18.7953 23.6986 18.9198 23.8623 19.0384C23.8754 19.0479 23.8858 19.0604 23.8928 19.0748C23.8997 19.0892 23.9029 19.105 23.902 19.1208C23.9012 19.1367 23.8963 19.1521 23.8879 19.1657C23.8795 19.1793 23.8678 19.1907 23.8538 19.1989C23.0812 19.6381 22.2718 20.013 21.4344 20.3196C21.4214 20.3244 21.4096 20.3319 21.3997 20.3414C21.3899 20.351 21.3822 20.3625 21.3773 20.3752C21.3723 20.3878 21.3701 20.4013 21.3709 20.4149C21.3716 20.4284 21.3753 20.4416 21.3817 20.4537C21.8455 21.3256 22.3744 22.1632 22.9641 22.9598C22.976 22.9761 22.993 22.9884 23.0125 22.9948C23.032 23.0013 23.0531 23.0016 23.0728 22.9957C25.861 22.165 28.483 20.8769 30.8261 19.1871C30.8375 19.179 30.847 19.1686 30.854 19.1566C30.8609 19.1446 30.8652 19.1314 30.8665 19.1177C31.513 12.6087 29.784 6.95473 26.2832 1.94251ZM10.3592 15.6883C8.83181 15.6883 7.57325 14.3234 7.57325 12.647C7.57325 10.9707 8.8074 9.60564 10.3592 9.60564C11.9232 9.60564 13.1696 10.9826 13.1452 12.6469C13.1452 14.3234 11.911 15.6883 10.3592 15.6883ZM20.6599 15.6883C19.1325 15.6883 17.874 14.3234 17.874 12.647C17.874 10.9707 19.1081 9.60564 20.6599 9.60564C22.224 9.60564 23.4703 10.9826 23.4459 12.6469C23.4459 14.3234 22.224 15.6883 20.6599 15.6883Z" fill="#44444F"/>
</svg>
