<svg
  width="20"
  height="28"
  viewBox="0 0 20 28"
  fill="none"
  xmlns="http://www.w3.org/2000/svg"
>
  <path
    fill-rule="evenodd"
    clip-rule="evenodd"
    d="M18.8011 23.5808C18.0443 24.9532 16.7195 26.1129 15.2801 26.9341C14.6671 27.284 13.7958 27.6958 13.2928 27.8719C15.48 25.6874 16.2524 22.4462 14.1169 19.9438C13.9485 20.8771 13.4096 21.8172 12.9605 22.2289C12.6619 18.9373 9.33403 17.1738 9.34076 14.6759C5.09451 18.5736 3.58777 25.111 7.724 28C7.21876 27.8445 6.68657 27.6775 6.20378 27.4739C5.03388 26.9821 3.8752 26.1747 2.88942 25.1751C-6.55068 15.5977 10.1693 0.92182 10.093 0C9.94704 1.82534 11.3056 7.99902 13.2614 10.2132C13.6521 9.51785 14.593 8.25063 15.3407 7.84348C14.1237 10.6272 23.1641 15.6824 18.8011 23.5808Z"
    fill="#ff8543"
  />
</svg>