<svg width="72" height="56" viewBox="0 0 72 56" fill="none" xmlns="http://www.w3.org/2000/svg">
<path d="M0 8C0 3.5875 3.98624 0 8.88917 0H62.2242C67.1271 0 71.1134 3.5875 71.1134 8V48C71.1134 52.4125 67.1271 56 62.2242 56H8.88917C3.98624 56 0 52.4125 0 48V8ZM44.9736 21.3125C44.3486 20.4875 43.3208 20 42.2236 20C41.1263 20 40.0846 20.4875 39.4735 21.3125L27.3898 37.2625L23.7091 33.125C23.0702 32.4125 22.1118 32 21.1118 32C20.1117 32 19.1395 32.4125 18.5145 33.125L9.62531 43.125C8.81972 44.025 8.66694 45.2625 9.22252 46.3C9.77809 47.3375 10.9448 48 12.2226 48H25.5564H30.001H58.8908C60.1269 48 61.2658 47.3875 61.8353 46.4C62.4048 45.4125 62.3353 44.225 61.6408 43.3125L44.9736 21.3125ZM15.556 20C19.2367 20 22.2229 17.3125 22.2229 14C22.2229 10.6875 19.2367 8 15.556 8C11.8754 8 8.88917 10.6875 8.88917 14C8.88917 17.3125 11.8754 20 15.556 20Z" fill="white"/>
</svg>
