<svg
  width="28"
  height="28"
  viewBox="0 0 28 28"
  fill="none"
  xmlns="http://www.w3.org/2000/svg"
>
  <path
    d="M17.9102 4.65937C17.6641 4.75234 17.5 4.9875 17.5 5.25C17.5 5.5125 17.6641 5.74766 17.9102 5.84063L21 7L22.1594 10.0898C22.2523 10.3359 22.4875 10.5 22.75 10.5C23.0125 10.5 23.2477 10.3359 23.3406 10.0898L24.5 7L27.5898 5.84063C27.8359 5.74766 28 5.5125 28 5.25C28 4.9875 27.8359 4.75234 27.5898 4.65937L24.5 3.5L23.3406 0.410156C23.2477 0.164062 23.0125 0 22.75 0C22.4875 0 22.2523 0.164062 22.1594 0.410156L21 3.5L17.9102 4.65937ZM11.2164 4.00859C11.0742 3.69688 10.7625 3.5 10.4234 3.5C10.0844 3.5 9.77266 3.69688 9.63047 4.00859L6.74297 10.243L0.508594 13.125C0.196875 13.2672 0 13.5789 0 13.9234C0 14.268 0.196875 14.5742 0.508594 14.7164L6.74844 17.5984L9.625 23.8328C9.76719 24.1445 10.0789 24.3414 10.418 24.3414C10.757 24.3414 11.0688 24.1445 11.2109 23.8328L14.093 17.593L20.3328 14.7109C20.6445 14.5688 20.8414 14.257 20.8414 13.918C20.8414 13.5789 20.6445 13.2672 20.3328 13.125L14.0984 10.2484L11.2164 4.00859ZM21 21L17.9102 22.1594C17.6641 22.2523 17.5 22.4875 17.5 22.75C17.5 23.0125 17.6641 23.2477 17.9102 23.3406L21 24.5L22.1594 27.5898C22.2523 27.8359 22.4875 28 22.75 28C23.0125 28 23.2477 27.8359 23.3406 27.5898L24.5 24.5L27.5898 23.3406C27.8359 23.2477 28 23.0125 28 22.75C28 22.4875 27.8359 22.2523 27.5898 22.1594L24.5 21L23.3406 17.9102C23.2477 17.6641 23.0125 17.5 22.75 17.5C22.4875 17.5 22.2523 17.6641 22.1594 17.9102L21 21Z"
    fill="#04D3EF"
  />
</svg>