<svg width="29" height="23" viewBox="0 0 29 23" fill="none" xmlns="http://www.w3.org/2000/svg">
<path d="M26.0191 5.73201C26.0375 5.98356 26.0375 6.23517 26.0375 6.48672C26.0375 14.1593 20.0572 23 9.12694 23C5.75952 23 2.63136 22.0476 0 20.3946C0.478445 20.4484 0.938426 20.4664 1.43528 20.4664C4.2138 20.4664 6.77158 19.55 8.81411 17.9867C6.20115 17.9328 4.01142 16.2617 3.25696 13.9617C3.62501 14.0156 3.99301 14.0515 4.37947 14.0515C4.91308 14.0515 5.44675 13.9796 5.94355 13.8539C3.2202 13.3148 1.17762 10.9789 1.17762 8.1578V8.08595C1.96884 8.51721 2.88897 8.78673 3.86415 8.82263C2.26326 7.78042 1.21444 6.00154 1.21444 3.98902C1.21444 2.91092 1.5088 1.92264 2.02406 1.06013C4.94984 4.582 9.34772 6.88196 14.2792 7.13357C14.1872 6.70232 14.1319 6.25314 14.1319 5.80391C14.1319 2.60544 16.7817 0 20.0755 0C21.7868 0 23.3325 0.700779 24.4182 1.83281C25.7614 1.58126 27.0495 1.09608 28.1904 0.431253C27.7487 1.77894 26.8103 2.91097 25.5774 3.62967C26.7735 3.50395 27.9328 3.18044 29 2.73127C28.1905 3.88122 27.1784 4.9054 26.0191 5.73201Z" fill="#44444F"/>
</svg>
