
<svg width="100%" height="100%" preserveAspectRatio="none" viewBox="0 0 30 26" fill="none" xmlns="http://www.w3.org/2000/svg"><path d="M26.9162 6.88961C26.9353 7.1561 26.9353 7.42264 26.9353 7.68912C26.9353 15.8172 20.7487 25.1828 9.44162 25.1828C5.95811 25.1828 2.72209 24.1738 0 22.4226C0.494941 22.4797 0.970781 22.4988 1.48477 22.4988C4.35908 22.4988 7.00506 21.528 9.11801 19.8719C6.41496 19.8147 4.14973 18.0445 3.36926 15.6079C3.75 15.665 4.13068 15.703 4.53047 15.703C5.08248 15.703 5.63455 15.6269 6.14848 15.4937C3.33123 14.9226 1.21822 12.448 1.21822 9.45942V9.3833C2.03672 9.84016 2.98857 10.1257 3.99738 10.1637C2.34129 9.05963 1.25631 7.17514 1.25631 5.04315C1.25631 3.90104 1.56082 2.85408 2.09385 1.94037C5.12051 5.67133 9.67002 8.10783 14.7715 8.37438C14.6763 7.91752 14.6192 7.44168 14.6192 6.96578C14.6192 3.57742 17.3603 0.817307 20.7677 0.817307C22.538 0.817307 24.1369 1.55969 25.2601 2.75893C26.6496 2.49244 27.9821 1.97846 29.1623 1.27416C28.7054 2.70186 27.7346 3.9011 26.4593 4.66246C27.6966 4.52928 28.8959 4.18656 29.9999 3.71072C29.1625 4.92895 28.1154 6.01393 26.9162 6.88961V6.88961Z" fill="#000"></path></svg>