<svg xmlns="http://www.w3.org/2000/svg" viewBox="0 0 5090.04 5090.04"><defs><style>.cls-1{fill:#fff;}.cls-2{fill:#27d558;}.cls-3{fill:#3c3c3c;}</style></defs><g id="Layer_2"><circle class="cls-1" cx="2545.02" cy="2545.02" r="2545.02"/></g><g id="Layer_1"><path class="cls-3" d="M4280.55,1845.65l-307.12,307.07c34.34,125,52.7,256.54,52.7,392.3,0,817.43-665.03,1482.46-1482.46,1482.46s-1482.46-665.03-1482.46-1482.46,665.03-1482.46,1482.46-1482.46c301.44,0,582.14,90.45,816.42,245.61l280.34-280.29c-16.49-11.94-33.15-23.63-49.99-35.01-100.08-67.62-207.09-125.7-318.06-172.63-113.06-47.82-231.37-84.55-351.65-109.16-123.31-25.23-250.18-38.03-377.06-38.03s-253.74,12.79-377.06,38.03c-120.28,24.61-238.59,61.34-351.65,109.16-110.96,46.93-217.97,105.01-318.06,172.63-99.08,66.94-192.25,143.81-276.91,228.47-84.66,84.66-161.53,177.83-228.47,276.91-67.61,100.08-125.7,207.09-172.63,318.06-47.82,113.06-84.55,231.37-109.16,351.65-25.23,123.32-38.03,250.18-38.03,377.06s12.79,253.75,38.03,377.06c24.61,120.28,61.34,238.6,109.16,351.65,46.93,110.96,105.01,217.97,172.63,318.06,66.94,99.08,143.81,192.25,228.47,276.91,84.66,84.66,177.83,161.53,276.91,228.47,100.08,67.62,207.09,125.7,318.06,172.63,113.06,47.82,231.37,84.55,351.65,109.16,123.32,25.23,250.18,38.03,377.06,38.03s253.75-12.79,377.06-38.03c120.28-24.61,238.6-61.34,351.65-109.16,110.96-46.93,217.97-105.01,318.06-172.63,99.08-66.94,192.25-143.81,276.91-228.47,84.66-84.66,161.53-177.83,228.47-276.91,67.62-100.08,125.7-207.09,172.63-318.06,47.82-113.06,84.55-231.37,109.16-351.65,25.23-123.31,38.03-250.18,38.03-377.06s-12.79-253.74-38.03-377.06c-22.49-109.92-55.11-218.19-97.05-322.31Z"/><path class="cls-2" d="M2492.16,2490.69l-358.67-358.66c-30.77-30.77-71.1-46.15-111.43-46.15-40.33,0-80.65,15.38-111.42,46.15l-191.35,191.34c-61.54,61.54-61.54,161.31,0,222.85l661.43,661.42c30.77,30.77,71.1,46.15,111.43,46.15s80.65-15.38,111.42-46.15l302.78-302.77c10.53-10.53,1482.3-1482.06,1489.76-1489.51,61.55-61.54,61.56-161.32,.02-222.87l-191.34-191.34c-30.77-30.77-71.1-46.15-111.43-46.15s-80.64,15.38-111.41,46.14c-21.55,21.55-1476.65,1476.41-1489.79,1489.54Z"/></g></svg>