<svg width="782" height="793" viewBox="0 0 782 793" fill="none" xmlns="http://www.w3.org/2000/svg">
<path d="M125.363 217.325C148.845 91.1243 192.697 62.9806 320.558 81.7426C474.033 22.4067 507.865 59.0045 567.676 123.705L568.647 124.755C663.569 162.132 710.816 186.68 691.755 292.597C757.459 413.981 731.681 441.73 686.315 490.565L685.202 491.763C657.767 662.899 612.641 704.111 474.56 693.735C349.344 758.359 282.327 754.087 182.939 625.009C65.9429 569.454 26.9578 525.303 72.4688 390.31C42.7353 319.504 33.3356 279.554 125.363 217.325Z" fill="#242424"/>
<path fill-rule="evenodd" clip-rule="evenodd" d="M316.115 35.0888C458.498 -19.0905 523.695 -16.2143 598.115 84.0888C726.825 127.589 756.734 172.333 739.615 286.089C807.526 413.275 784.883 450.021 733.115 509.089C687.548 730.788 624.379 756.72 488.615 742.589C325.188 836.377 258.167 791.667 151.615 660.589C9.45317 594.357 -22.4356 536.709 21.6153 390.589C-17.0311 305.36 -8.07755 260.866 83.1153 189.589C114.981 52.3902 158.717 9.09934 316.115 35.0888ZM584.562 103.716C514.89 9.92753 453.854 7.23813 320.558 57.8987C173.204 33.5972 132.259 74.0764 102.427 202.364C17.0533 269.013 8.67109 310.617 44.8512 390.31C3.61148 526.941 33.4653 580.844 166.555 642.774C266.308 765.34 329.052 807.146 482.05 719.449C609.149 732.662 668.288 708.414 710.947 501.114C759.411 445.882 780.609 411.523 717.032 292.597C733.059 186.23 705.058 144.391 584.562 103.716Z" fill="#242424"/>
<path fill-rule="evenodd" clip-rule="evenodd" d="M320.558 57.8987C453.854 7.23813 514.89 9.92753 584.562 103.716C705.058 144.391 733.059 186.23 717.032 292.597C780.609 411.523 759.411 445.882 710.947 501.114C668.288 708.414 609.149 732.662 482.05 719.449C329.052 807.146 266.308 765.34 166.555 642.774C33.4653 580.844 3.61148 526.941 44.8512 390.31C8.67109 310.617 17.0533 269.013 102.427 202.364C132.259 74.0764 173.204 33.5972 320.558 57.8987ZM320.558 81.7426C192.697 62.9806 148.845 91.1243 125.363 217.325C33.3356 279.554 42.7353 319.504 72.4688 390.31C26.9578 525.303 65.9429 569.454 182.939 625.009C282.327 754.087 349.344 758.359 474.56 693.735C612.641 704.111 657.767 662.899 685.202 491.763L686.315 490.565C731.681 441.73 757.459 413.981 691.755 292.597C710.816 186.68 663.569 162.132 568.647 124.755L567.676 123.705C507.865 59.0045 474.033 22.4067 320.558 81.7426Z" fill="#F9F9F9"/>
<path d="M216 420.075C192.804 420.075 181.666 438.54 203.336 446.814C231.925 457.73 287.19 467 392.348 467C494.783 467 608 453.246 608 423.513C608 391.077 503.52 388.417 413.814 386.134C346.336 384.416 287.217 382.911 287.217 369.105C287.217 353.733 340.591 349.283 396.661 349.283C423.254 349.283 448.149 350.284 466.975 353.322C489.875 357.017 520.056 372.341 543.252 372.341H561.802C584.526 372.341 597.668 352.919 576.728 344.09C541.084 329.06 472.619 324 396.661 324C264.035 324 181.009 339.574 181.009 366.88C181.009 403.045 287.933 404.913 378.833 406.5C446.04 407.674 504.487 408.695 504.487 423.311C504.487 435.042 458.122 441.11 391.809 441.11C364.402 441.11 338.953 440.203 319.559 437.57C296.05 434.379 263.258 420.075 239.534 420.075H216Z" fill="white"/>
</svg>
